            <svg xmlns="http://www.w3.org/2000/svg"
                xmlns:xlink="http://www.w3.org/1999/xlink"
                viewBox="0 0 125.19 87.75" fill="currentColor"
                                class="h-[100%] w-[80%] text-white"
                width="500" height="450">
<g
                    data-name="Layer 2">
  <g
                        data-name="Layer 3" fill-rule="evenodd">
    <path
                            d="M61.67,13.51l-.6.34.8.8v-1l-.19-.18Zm-1.7,1,1.92,1.91v.95L59.37,14.8l.6-.34Zm-1.7.95-.6.33L61.93,20v-.95l-3.65-3.64Zm-1.7.94-.61.34,6,6v-.95l-5.38-5.38Zm-1.71.94-.6.34L62,25.36v-1l-7.11-7.11Zm-1.7.95,8.65,8.65-.06.11-.57.2-8.63-8.63.61-.33Zm-1.71.94,8.48,8.48-.69.25-8.39-8.39.6-.34Zm-1.7.94L58,28.37l-.68.25-8.17-8.16.61-.34ZM48,21.07l8,8-.69.25L47.44,21.4l.6-.33Zm-1.7.94-.61.33,7.7,7.7.69-.25L46.34,22ZM44.63,23l-.6.33,7.46,7.47.69-.25L44.63,23Zm-1.71.94-.6.34,7.23,7.23.69-.26-7.32-7.31Zm-1.7.94-.61.34,7,7,.69-.26-7.08-7.08Zm-1.71,1,6.85,6.84-.69.25-6.76-6.76.6-.33Zm-1.7.94,6.61,6.61-.69.25L37.2,27.05l.61-.33Zm-1.71.94L42.48,34l-.69.25L35.49,28l.61-.33Zm-1.71.94-.6.33L39.85,35l.69-.25L34.39,28.6Zm-1.7.94-.61.34,5.83,5.83.69-.25-5.91-5.92ZM31,30.48l-.61.34,5.6,5.6.69-.25L31,30.48Zm-1.71.94,5.45,5.46-.68.25-5.37-5.37.6-.34Zm-1.71.95,5.22,5.22-.68.25L27,32.7l.6-.33Zm-1.7.94,5,5-.69.25-4.91-4.91.61-.33Zm-1.23,1.42v1l3.58,3.58.69-.26-4.28-4.27Zm0,2.67v1L26.28,40l.69-.26L24.65,37.4Zm0,2.67v.48l.34-.13-.35-.35Zm32,24c0,.2,0,.51,0,.92l-1.25-1.25,1,.09.24.24Zm0,2.62-3.11-3.11-1-.09,4.14,4.14v-.94Zm0,2.65-6-6-1-.09,7.05,7v-.94Zm0,2.66-8.92-8.92-1-.09,10,10V72Zm0,2.66L44.82,62.86l-1-.09L56.66,75.64v-1Zm0,2.67L41.92,62.61l-1-.09L55.42,77.05l1.25.33v0Zm-3.56-.91-1.27-.33L38,62.27l1,.09L53.11,76.45Zm-3.58-.93-1.27-.33L35.09,62l1,.09L49.53,75.52ZM46,74.59l-1.27-.34L32.19,61.77l1,.08L46,74.59Zm-3.58-.94-1.27-.33L29.65,61.88v-.33l.66.05,12,12.05Zm-3.58-.93-9.16-9.16v.93l7.9,7.9,1.27.33Zm-3.58-.93L29.6,66.18v.93l4.35,4.35,1.27.33Zm-3.58-.93L29.57,68.8v.93l.8.79,1.27.34ZM69.4,38.06Zm0,1.71v.94l-2.19-2.19.77-.16,1.42,1.41Zm0,2.65-3.61-3.61L65,39l4.39,4.38v-.94Zm0,2.65-5.8-5.8-.78.16L69.4,46v-.94Zm0,2.65-8-8-.78.16,8.77,8.77v-.94Zm-.27,2.38-9.91-9.92-.78.17,9.84,9.84.85-.09Zm-2.4.24-.86.09L56.24,40.8l.78-.16,9.71,9.7Zm-2.41.25-.85.08-9.42-9.41.78-.16,9.49,9.49Zm-2.4.24-.86.08-9.2-9.2.78-.16,9.28,9.28Zm-2.41.24-.85.09-9-9,.78-.16,9.06,9.06Zm-2.4.24-8.85-8.85-.78.17,8.77,8.77.86-.09Zm-2.41.25-8.64-8.64-.78.16,8.57,8.56.85-.08Zm-2.4.24-8.43-8.42-.78.16,8.35,8.35.86-.09ZM49.89,52l-8.21-8.21L40.9,44,49,52.13l.85-.09Zm-2.41.25-.85.08-7.92-7.92.78-.16,8,8Zm-2.4.24-.86.08-7.7-7.7.78-.17,7.78,7.79Zm-2.41.24-.85.09-7.5-7.5.78-.16,7.57,7.57Zm-2.4.24-7.36-7.35-.78.16,7.28,7.28.86-.09Zm-2.41.25-7.14-7.15-.78.17L37,53.34l.85-.08Zm-2.4.24-6.93-6.93-.78.16,6.85,6.86.86-.09Zm-2.41.24-.85.09-6.64-6.64.77-.16,6.72,6.71Zm-2.4.25-.86.08-5.2-5.2v-.94L30.65,54Zm-2.41.24-.85.08-2.8-2.79v-.94l3.65,3.65Zm-2.4.24-1.25-1.24v.94l.39.39Z" />
    <path
                            d="M97.49,32.84l-.61-.33-5.57,5.57.68.26,5.5-5.5ZM93,30.35l-6,6-.68-.26L92.37,30l.6.33Zm-4.51-2.48-.61-.34L81.18,34.2l.68.26,6.6-6.59Zm-4.52-2.49-7.15,7.15-.68-.26,7.22-7.22.61.33Zm-4.52-2.49-.61-.33L71,30.33l.68.26,7.7-7.7ZM74.9,20.41l-8.24,8.24L66,28.39l8.32-8.32.6.34Zm-4.51-2.49-.61-.33-7.73,7.73v.94l8.34-8.34Zm-4.52-2.49-3.82,3.82v-.94l3.21-3.21.61.33ZM96.38,40l2.76-2.77v1l-2.07,2.08L96.38,40ZM94.25,63.15v.95l-6.5,6.49-1.2.27,7.7-7.71Zm-15.46,9.4,11-11-1,.08L77.59,72.81l1.2-.26Zm-9,2-1.2.26L81.16,62.24l1-.08L69.83,74.51Zm-9,1.95L74.6,62.73l-1,.08L59.67,76.72l1.2-.26Zm-4.2-2.8v-.94L66,63.39l1-.08L56.67,73.66Zm0-7,2.78-2.78-1,.08-1.76,1.76v.94ZM97.42,46.92l-.72-.22-6.88,6.88.79.15,6.81-6.81ZM92.1,45.24l-7.42,7.42-.8-.14L91.38,45l.72.23Zm-5.33-1.68-.71-.23-8.12,8.12.8.14,8-8Zm-5.32-1.69L72.8,50.53l-.8-.15,8.74-8.73.71.22Zm-5.32-1.68L75.42,40l-6,6v1l6.73-6.74Zm-5.32-1.68-.72-.23-.69.7v.94l1.41-1.41ZM95.75,54.65l3.47-3.46v.92l-2.68,2.68Z" />
    <path
                            d="M118.35,33.26H99.55V19.05h-.66v14.2L69.68,17.12V0H69V16.75L62.29,13V3.29h-.66V13L57,15.61V1h-.67V16L45.49,22a24.27,24.27,0,0,0-3.84-5A23.93,23.93,0,0,0,25,10V6.23h-.66V10A24,24,0,0,0,7.56,50.83l-4.11.88.13.65,4.55-1a24.22,24.22,0,0,0,5.61,4l-2.38.24.07.66,3.46-.35A24,24,0,0,0,24.35,58v2.63L.06,58.37,0,59,24.35,61.3v7.3L6.85,63.88l-.17.64,17.67,4.77V80H25V69.47l4.32,1.16v4.59H30V70.81l26.14,7,.07,0,.08,0h.07V83H57V77.7l4.61-1V87.75h.66V76.52l12.92-2.87v3.08h18.7v3.51h.66V76.73h4.32v6.51h.66V76.73h19.13V59.18l6.4,1.15.11-.65-6.51-1.17v-9.7l2.68,1,.24-.62-2.92-1.11V33.26ZM30,59.44h-.66V61.1L25,60.7V58a23.88,23.88,0,0,0,13.7-4.53l17.64-1.81V63.62L30,61.16V59.44Zm-.66,2.33v8.17L25,68.78V61.36l4.32.41ZM30,70.12V61.83l26.36,2.46V77.17l-.13,0L30,70.12ZM94.57,59.81h-.66V61l-18,1.27V51.51l23,4.12v5l-4.32.3V59.81Zm-.66,1.88V68.8l-18,4-.67.15L62.29,75.85l-.66.14L57,77V64.29L61.63,64l.66,0L75.21,63l.67,0,18-1.27Zm0,7.79v6.59h-18V73.5l18-4Zm.66,6.59V69.33l4.32-1v7.7Zm0-7.41v-7l4.32-.31v6.35l-4.32,1ZM98.89,34v6.53L81.56,33.93l-1.74-.67L69.68,29.39,69,29.14l-6.72-2.57V13.8L69,17.51l.67.37L97.54,33.26l1.2.67.15.08Zm0,7.24v5.81l-23-7.34V33.93H79.7l19.19,7.32Zm0,6.5V55l-23-4.12-.67-.12-5.53-1V38.44l5.53,1.76.67.22,23,7.33Zm.66,28.32V68.23l16.22-3.62-.14-.64L99.55,67.55V61.3L103.4,61l0-.66-3.81.27V55.75L118,59.06v17Zm0-21V48l8.82,2.81.2-.63-9-2.87V41.51L118,48.56v9.83L99.55,55.08Zm0-14.28V34.38L108,39l.32-.58-8.19-4.52H118V47.85L99.55,40.8ZM24.35,10.67V33.81L8.4,42.69l.32.58,15.63-8.7V40.4l-8.59,3.18.24.63,8.35-3.1v6.14l-16,3.42-.16-.16A23.34,23.34,0,0,1,24.35,10.67Zm0,37.26v6.36l-9.35,1a23.32,23.32,0,0,1-6.08-4l15.43-3.29Zm0,7v2.38a23.21,23.21,0,0,1-8.07-1.55L24.35,55ZM25,57.34V54.89l12.32-1.27A23.19,23.19,0,0,1,25,57.34Zm0-3.12V47.79L56.35,41.1,57,41l4.61-1,.66-.14L69,38.4V49.7l-4.86.5-1.86.19-.66.07L57,50.93l-.67.07L39.73,52.71h0L25,54.22Zm13.45-1.38L25,54.22l13.45-1.38ZM25,47.11V40.86l23-8.51c0,.55.06,1.1.06,1.66a23.23,23.23,0,0,1-1.61,8.53L25,47.11Zm0-7V34.2l1.38-.77,6.74-3.76,12.1-6.73,5.37-3,5.75-3.21h0l.67-.37,4.61-2.57V26.57l-2.87,1.06L57,28.28l-.67.24h0l-7.8,2.9-.65.24L25,40.15Zm0-6.71V10.67A23.27,23.27,0,0,1,41.18,17.5a23.52,23.52,0,0,1,3.73,4.86L25,33.44Zm36.62-6.16v12l-4.61,1V29l4.61-1.71Zm0,23.85V63.3L57,63.63v-12l4.61-.47Zm.66,12.13V51.06L69,50.37v6.55h.67V50.4l5.53,1v11l-12.92.91Zm0-24.11V27.28L69,29.85v7.87l-6.72,1.43Zm-5.94-9.92V40.42l-9.17,2A24,24,0,0,0,48.68,34c0-.64,0-1.28-.07-1.9l7.74-2.88Zm13.33,8.51V30.1L78,33.26H75.21v6.25Z" />
  </g>
</g>
</svg>